<mxfile host="app.diagrams.net" modified="2024-01-12T02:25:11.514Z" agent="Mozilla/5.0 (Macintosh; Intel Mac OS X 10_15_7) AppleWebKit/537.36 (KHTML, like Gecko) Chrome/120.0.0.0 Safari/537.36" etag="TVSEQq7q5JaC_d_ewIgA" version="22.1.18" type="device">
  <diagram name="Page-1" id="BpjJpDksya4O373mOuW-">
    <mxGraphModel dx="1464" dy="1215" grid="1" gridSize="10" guides="1" tooltips="1" connect="1" arrows="1" fold="1" page="1" pageScale="1" pageWidth="827" pageHeight="1169" math="0" shadow="0">
      <root>
        <mxCell id="0" />
        <mxCell id="1" parent="0" />
        <mxCell id="v1uuImqvkQ1xuhyvour1-2" value="first checkpoint for locale A" style="rounded=1;whiteSpace=wrap;html=1;fontSize=16;strokeWidth=3;glass=0;" vertex="1" parent="1">
          <mxGeometry x="120" y="240" width="120" height="60" as="geometry" />
        </mxCell>
        <mxCell id="v1uuImqvkQ1xuhyvour1-3" value="nth checkpoint for locale A" style="rounded=1;whiteSpace=wrap;html=1;fontSize=16;strokeWidth=3;glass=0;" vertex="1" parent="1">
          <mxGeometry x="120" y="440" width="120" height="60" as="geometry" />
        </mxCell>
        <mxCell id="v1uuImqvkQ1xuhyvour1-4" value="" style="endArrow=classic;html=1;rounded=0;exitX=0.5;exitY=1;exitDx=0;exitDy=0;entryX=0.5;entryY=0;entryDx=0;entryDy=0;fontSize=16;strokeWidth=3;" edge="1" parent="1" source="v1uuImqvkQ1xuhyvour1-2" target="v1uuImqvkQ1xuhyvour1-9">
          <mxGeometry width="50" height="50" relative="1" as="geometry">
            <mxPoint x="410" y="640" as="sourcePoint" />
            <mxPoint x="460" y="590" as="targetPoint" />
          </mxGeometry>
        </mxCell>
        <mxCell id="v1uuImqvkQ1xuhyvour1-5" value="" style="endArrow=classic;html=1;rounded=0;exitX=0.5;exitY=1;exitDx=0;exitDy=0;entryX=0.5;entryY=0;entryDx=0;entryDy=0;fontSize=16;strokeWidth=3;" edge="1" parent="1" source="v1uuImqvkQ1xuhyvour1-3" target="v1uuImqvkQ1xuhyvour1-10">
          <mxGeometry width="50" height="50" relative="1" as="geometry">
            <mxPoint x="410" y="640" as="sourcePoint" />
            <mxPoint x="180" y="560" as="targetPoint" />
          </mxGeometry>
        </mxCell>
        <mxCell id="v1uuImqvkQ1xuhyvour1-7" value="main branch" style="text;strokeColor=none;align=center;fillColor=none;html=1;verticalAlign=middle;whiteSpace=wrap;rounded=0;fontSize=20;strokeWidth=3;" vertex="1" parent="1">
          <mxGeometry x="125" y="180" width="110" height="30" as="geometry" />
        </mxCell>
        <mxCell id="v1uuImqvkQ1xuhyvour1-8" value="locale A" style="text;strokeColor=none;align=center;fillColor=none;html=1;verticalAlign=middle;whiteSpace=wrap;rounded=0;fontColor=#004C99;fontSize=20;strokeWidth=3;" vertex="1" parent="1">
          <mxGeometry x="325" y="180" width="110" height="30" as="geometry" />
        </mxCell>
        <mxCell id="v1uuImqvkQ1xuhyvour1-11" value="" style="edgeStyle=orthogonalEdgeStyle;rounded=0;orthogonalLoop=1;jettySize=auto;html=1;fontSize=16;strokeWidth=3;" edge="1" parent="1" source="v1uuImqvkQ1xuhyvour1-9" target="v1uuImqvkQ1xuhyvour1-3">
          <mxGeometry relative="1" as="geometry" />
        </mxCell>
        <mxCell id="v1uuImqvkQ1xuhyvour1-9" value="first checkpoint for locale B" style="rounded=1;whiteSpace=wrap;html=1;fontSize=16;strokeWidth=3;glass=0;" vertex="1" parent="1">
          <mxGeometry x="120" y="340" width="120" height="60" as="geometry" />
        </mxCell>
        <mxCell id="v1uuImqvkQ1xuhyvour1-10" value="nth checkpoint for locale B" style="rounded=1;whiteSpace=wrap;html=1;fontSize=16;strokeWidth=3;glass=0;" vertex="1" parent="1">
          <mxGeometry x="120" y="540" width="120" height="60" as="geometry" />
        </mxCell>
        <mxCell id="v1uuImqvkQ1xuhyvour1-12" value="first translation for locale A" style="rounded=1;whiteSpace=wrap;html=1;strokeColor=#3399FF;fontColor=#0066CC;fontSize=16;strokeWidth=3;glass=0;" vertex="1" parent="1">
          <mxGeometry x="320" y="240" width="120" height="60" as="geometry" />
        </mxCell>
        <mxCell id="v1uuImqvkQ1xuhyvour1-13" value="" style="endArrow=classic;html=1;rounded=0;exitX=0.5;exitY=1;exitDx=0;exitDy=0;fontSize=16;strokeWidth=3;" edge="1" parent="1" source="v1uuImqvkQ1xuhyvour1-10">
          <mxGeometry width="50" height="50" relative="1" as="geometry">
            <mxPoint x="410" y="640" as="sourcePoint" />
            <mxPoint x="180" y="660" as="targetPoint" />
          </mxGeometry>
        </mxCell>
        <mxCell id="v1uuImqvkQ1xuhyvour1-14" value="nth translation for locale B" style="rounded=1;whiteSpace=wrap;html=1;strokeColor=#4D9900;fontColor=#006633;fontSize=16;strokeWidth=3;glass=0;" vertex="1" parent="1">
          <mxGeometry x="520" y="540" width="120" height="60" as="geometry" />
        </mxCell>
        <mxCell id="v1uuImqvkQ1xuhyvour1-15" value="first translation for locale B" style="rounded=1;whiteSpace=wrap;html=1;strokeColor=#4D9900;fontColor=#006633;fontSize=16;strokeWidth=3;glass=0;" vertex="1" parent="1">
          <mxGeometry x="520" y="340" width="120" height="60" as="geometry" />
        </mxCell>
        <mxCell id="v1uuImqvkQ1xuhyvour1-16" value="nth translation for locale A" style="rounded=1;whiteSpace=wrap;html=1;strokeColor=#3399FF;fontColor=#0066CC;fontSize=16;strokeWidth=3;glass=0;" vertex="1" parent="1">
          <mxGeometry x="320" y="440" width="120" height="60" as="geometry" />
        </mxCell>
        <mxCell id="v1uuImqvkQ1xuhyvour1-17" value="" style="endArrow=classic;html=1;rounded=0;exitX=1;exitY=0.5;exitDx=0;exitDy=0;entryX=0;entryY=0.5;entryDx=0;entryDy=0;strokeColor=#3399FF;fontSize=16;strokeWidth=3;" edge="1" parent="1" source="v1uuImqvkQ1xuhyvour1-2" target="v1uuImqvkQ1xuhyvour1-12">
          <mxGeometry width="50" height="50" relative="1" as="geometry">
            <mxPoint x="390" y="640" as="sourcePoint" />
            <mxPoint x="440" y="590" as="targetPoint" />
          </mxGeometry>
        </mxCell>
        <mxCell id="v1uuImqvkQ1xuhyvour1-18" value="" style="endArrow=classic;html=1;rounded=0;exitX=1;exitY=0.5;exitDx=0;exitDy=0;entryX=0;entryY=0.5;entryDx=0;entryDy=0;strokeColor=#3399FF;fontSize=16;strokeWidth=3;" edge="1" parent="1">
          <mxGeometry width="50" height="50" relative="1" as="geometry">
            <mxPoint x="240" y="469.5" as="sourcePoint" />
            <mxPoint x="320" y="469.5" as="targetPoint" />
          </mxGeometry>
        </mxCell>
        <mxCell id="v1uuImqvkQ1xuhyvour1-19" value="" style="endArrow=classic;html=1;rounded=0;exitX=1;exitY=0.5;exitDx=0;exitDy=0;strokeColor=#4D9900;fontColor=#006633;fontSize=16;strokeWidth=3;" edge="1" parent="1" target="v1uuImqvkQ1xuhyvour1-15">
          <mxGeometry width="50" height="50" relative="1" as="geometry">
            <mxPoint x="240" y="369.5" as="sourcePoint" />
            <mxPoint x="320" y="369.5" as="targetPoint" />
          </mxGeometry>
        </mxCell>
        <mxCell id="v1uuImqvkQ1xuhyvour1-20" value="" style="endArrow=classic;html=1;rounded=0;exitX=1;exitY=0.5;exitDx=0;exitDy=0;entryX=0;entryY=0.5;entryDx=0;entryDy=0;strokeColor=#4D9900;fontColor=#006633;fontSize=16;strokeWidth=3;" edge="1" parent="1" target="v1uuImqvkQ1xuhyvour1-14">
          <mxGeometry width="50" height="50" relative="1" as="geometry">
            <mxPoint x="240" y="569.5" as="sourcePoint" />
            <mxPoint x="320" y="569.5" as="targetPoint" />
          </mxGeometry>
        </mxCell>
        <mxCell id="v1uuImqvkQ1xuhyvour1-21" value="" style="endArrow=classic;html=1;rounded=0;exitX=0;exitY=0.5;exitDx=0;exitDy=0;strokeColor=#3399FF;fontSize=16;strokeWidth=3;" edge="1" parent="1" source="v1uuImqvkQ1xuhyvour1-12">
          <mxGeometry width="50" height="50" relative="1" as="geometry">
            <mxPoint x="390" y="640" as="sourcePoint" />
            <mxPoint x="180" y="320" as="targetPoint" />
          </mxGeometry>
        </mxCell>
        <mxCell id="v1uuImqvkQ1xuhyvour1-22" value="" style="endArrow=classic;html=1;rounded=0;exitX=0;exitY=0.5;exitDx=0;exitDy=0;strokeColor=#3399FF;fontSize=16;strokeWidth=3;" edge="1" parent="1">
          <mxGeometry width="50" height="50" relative="1" as="geometry">
            <mxPoint x="320" y="470" as="sourcePoint" />
            <mxPoint x="180" y="520" as="targetPoint" />
          </mxGeometry>
        </mxCell>
        <mxCell id="v1uuImqvkQ1xuhyvour1-23" value="" style="endArrow=classic;html=1;rounded=0;strokeColor=#4D9900;fontColor=#006633;fontSize=16;strokeWidth=3;" edge="1" parent="1">
          <mxGeometry width="50" height="50" relative="1" as="geometry">
            <mxPoint x="520" y="370" as="sourcePoint" />
            <mxPoint x="180" y="420" as="targetPoint" />
          </mxGeometry>
        </mxCell>
        <mxCell id="v1uuImqvkQ1xuhyvour1-24" value="" style="endArrow=classic;html=1;rounded=0;strokeColor=#4D9900;fontColor=#006633;fontSize=16;strokeWidth=3;" edge="1" parent="1">
          <mxGeometry width="50" height="50" relative="1" as="geometry">
            <mxPoint x="520" y="570" as="sourcePoint" />
            <mxPoint x="180" y="620" as="targetPoint" />
          </mxGeometry>
        </mxCell>
        <mxCell id="v1uuImqvkQ1xuhyvour1-25" value="locale B" style="text;strokeColor=none;align=center;fillColor=none;html=1;verticalAlign=middle;whiteSpace=wrap;rounded=0;fontColor=#006600;fontSize=20;strokeWidth=3;" vertex="1" parent="1">
          <mxGeometry x="525" y="180" width="110" height="30" as="geometry" />
        </mxCell>
      </root>
    </mxGraphModel>
  </diagram>
</mxfile>
